<svg display="none" width="0" height="0" version="1.1" xmlns="http://www.w3.org/2000/svg" xmlns:xlink="http://www.w3.org/1999/xlink">
	<defs>
		<symbol id="icon-email" viewBox="0 0 32 32">
			<title>Email</title>
			<path d="M20.001,14 L12.001,14 L12.001,15 L20.001,15 L20.001,14 L20.001,14 Z M7.001,10 L25.001,10 L25.001,14 L29.001,11 L16.034,2 L3.001,11 L7.001,14 L7.001,10 L7.001,10 Z M30.001,29 L30.001,12 L16.001,23 L2.001,12 L2.001,29 L6.001,25 L7.001,26 L3.001,30 L29.001,30 L25.001,26 L26.001,25 L30.001,29 L30.001,29 Z M20.001,12 L12.001,12 L12.001,13 L20.001,13 L20.001,12 L20.001,12 Z M12.001,17 L20.001,17 L20.001,16 L12.001,16 L12.001,17 L12.001,17 Z"></path>
		</symbol>
		<symbol id="icon-github" viewBox="0 0 32 32">
			<title>GitHub</title>
			<path d="M15.9985267,0.395000011 C7.16436969,0.395000011 0,7.55838747 0,16.3954911 C0,23.4645847 4.58405721,29.4610855 10.9420179,31.5768042 C11.7425335,31.7241384 12.0342552,31.2300778 12.0342552,30.8057554 C12.0342552,30.4266155 12.020504,29.419832 12.0126462,28.0849844 C7.56217195,29.0514965 6.62316216,25.9397988 6.62316216,25.9397988 C5.89533135,24.0912461 4.84631204,23.5991499 4.84631204,23.5991499 C3.3935971,22.6070998 4.95632156,22.6267444 4.95632156,22.6267444 C6.56226404,22.7397006 7.40697996,24.2759049 7.40697996,24.2759049 C8.83415697,26.7206699 11.1522146,26.0144481 12.063722,25.6048591 C12.2090917,24.5715555 12.6226097,23.8663159 13.0793456,23.4665492 C9.52662758,23.0628535 5.7912152,21.689699 5.7912152,15.558633 C5.7912152,13.812232 6.41492986,12.3830905 7.43841125,11.2653152 C7.27339697,10.8606374 6.72433162,9.23308589 7.5955677,7.03093113 C7.5955677,7.03093113 8.93827312,6.60071535 11.9949661,8.67125158 C13.27088,8.31568511 14.6401056,8.13888411 16.0004911,8.13200851 C17.3598944,8.13888411 18.7281378,8.31568511 20.0060161,8.67125158 C23.0607447,6.60071535 24.4014856,7.03093113 24.4014856,7.03093113 C25.2746861,9.23308589 24.7256208,10.8606374 24.5615888,11.2653152 C25.5870346,12.3830905 26.2058381,13.812232 26.2058381,15.558633 C26.2058381,21.7054147 22.4645324,23.0579424 18.9010099,23.4537802 C19.4746309,23.9478408 19.9863716,24.9241752 19.9863716,26.4171615 C19.9863716,28.5554715 19.966727,30.2812458 19.966727,30.8057554 C19.966727,31.2340067 20.255502,31.7319962 21.0668222,31.575822 C27.4198717,29.4551922 32,23.4626203 32,16.3954911 C32,7.55838747 24.8356303,0.395000011 15.9985267,0.395000011"></path>
		</symbol>
		<symbol id="icon-resume" viewBox="0 0 32 32">
			<title>Resume</title>
			<path d="M29.001,6 L3.001,6 L3.001,10 L29.001,10 L29.001,6 L29.001,6 Z M28.001,2 L4.001,2 L4.001,5 L28.001,5 L28.001,2 L28.001,2 Z M2.001,11 L2.001,30 L10.001,30 L10.001,27 L8.001,27 L8.001,26 L12.001,26 L12.001,27 L11.001,27 L11.001,30 L21.001,30 L21.001,27 L20.001,27 L20.001,26 L24.001,26 L24.001,27 L22.001,27 L22.001,30 L30.001,30 L30.001,11 L2.001,11 L2.001,11 Z M7.501,13.427 C8.536,13.427 9.372,14.265 9.372,15.296 C9.372,16.331 8.536,17.168 7.501,17.168 C6.47,17.168 5.63,16.331 5.63,15.296 C5.63,14.265 6.47,13.427 7.501,13.427 L7.501,13.427 Z M10.001,23 L5.001,23 L5.001,20.546 C5.001,19.153 6.015,18.023 7.501,18.023 C8.989,18.023 10.001,19.154 10.001,20.546 L10.001,23 L10.001,23 Z M27.001,22 L15.001,22 L15.001,21 L27.001,21 L27.001,22 L27.001,22 Z M27.001,19 L15.001,19 L15.001,18 L27.001,18 L27.001,19 L27.001,19 Z M27.001,16 L15.001,16 L15.001,15 L27.001,15 L27.001,16 L27.001,16 Z"></path>
		</symbol>
		<symbol id="icon-twitter" viewBox="0 0 32 32">
			<title>Twitter</title>
			<path transform="translate(0, 2.98)" d="M31.9287591,3.16764964 C30.7539854,3.68864234 29.4915036,4.04075912 28.1664234,4.19912409 C29.5189489,3.38837956 30.5575474,2.10464234 31.0466569,0.575065693 C29.7810219,1.32566423 28.3790949,1.87083212 26.8870073,2.16467153 C25.6920292,0.891562044 23.9896058,0.096 22.1055766,0.096 C18.4878248,0.096 15.5548029,3.02890511 15.5548029,6.64642336 C15.5548029,7.15982482 15.6128467,7.65979562 15.7244964,8.13921168 C10.280292,7.8660438 5.45354745,5.25816058 2.22271533,1.29506569 C1.65886131,2.26254015 1.33582482,3.38779562 1.33582482,4.58826277 C1.33582482,6.86084672 2.49237956,8.86586861 4.2500438,10.0405255 C3.17617518,10.0065401 2.16618978,9.71188321 1.28291971,9.22125547 C1.28245255,9.24858394 1.28245255,9.2760292 1.28245255,9.30359124 C1.28245255,12.4774307 3.54043796,15.1250219 6.53710949,15.7267153 C5.98738686,15.876438 5.40870073,15.956438 4.81121168,15.956438 C4.38913869,15.956438 3.97874453,15.9154453 3.57886131,15.8389489 C4.41237956,18.4414599 6.83153285,20.3352993 9.6979854,20.3882044 C7.45611679,22.1450511 4.63159124,23.192292 1.56262774,23.192292 C1.03392701,23.192292 0.512467153,23.1613431 0,23.1008467 C2.89891971,24.9594161 6.34218978,26.0437956 10.0414599,26.0437956 C22.0902774,26.0437956 28.6790073,16.0622482 28.6790073,7.4060146 C28.6790073,7.1219854 28.6727007,6.83947445 28.6600876,6.55859854 C29.939854,5.6350365 31.0505109,4.48128467 31.9287591,3.16764964"></path>
		</symbol>
	</defs>
</svg>
